<?xml version="1.0" standalone="no"?>
<!DOCTYPE svg PUBLIC "-//W3C//DTD SVG 20010904//EN"
 "http://www.w3.org/TR/2001/REC-SVG-20010904/DTD/svg10.dtd">
<svg version="1.0" xmlns="http://www.w3.org/2000/svg"
 width="1878.000000pt" height="1902.000000pt" viewBox="0 0 1878.000000 1902.000000"
 preserveAspectRatio="xMidYMid meet">

<g transform="translate(0.000000,1902.000000) scale(0.100000,-0.100000)"
fill="#000000" stroke="none">
<path d="M4181 12253 c-79 -263 -210 -701 -291 -973 -81 -272 -198 -661 -260
-865 -175 -580 -203 -686 -193 -723 l5 -22 2521 0 c1961 0 2518 -3 2509 -12
-7 -7 -12 -20 -12 -30 0 -10 -7 -18 -15 -18 -8 0 -15 -8 -15 -19 0 -10 -7 -24
-15 -31 -8 -7 -15 -19 -15 -26 0 -8 -7 -14 -15 -14 -8 0 -15 -9 -15 -19 0 -11
-7 -26 -15 -35 -8 -8 -15 -20 -15 -26 0 -6 -6 -13 -14 -16 -8 -3 -19 -19 -25
-35 -5 -16 -15 -29 -20 -29 -6 0 -11 -7 -11 -15 0 -9 -7 -18 -15 -21 -8 -4
-15 -12 -15 -19 0 -8 -6 -20 -12 -27 -16 -18 -35 -46 -51 -78 -6 -14 -20 -34
-30 -45 -10 -11 -26 -33 -34 -49 -8 -16 -25 -38 -38 -50 -13 -12 -27 -34 -30
-49 -4 -15 -13 -27 -21 -27 -8 0 -14 -7 -14 -15 0 -8 -4 -15 -9 -15 -5 0 -11
-10 -15 -22 -3 -13 -18 -36 -34 -53 -15 -16 -31 -38 -35 -47 -3 -10 -11 -18
-17 -18 -5 0 -10 -6 -10 -14 0 -8 -16 -31 -35 -50 -19 -20 -35 -41 -35 -46 0
-11 -20 -36 -67 -86 -18 -19 -33 -39 -33 -44 0 -6 -4 -10 -10 -10 -5 0 -10 -7
-10 -15 0 -8 -9 -23 -20 -32 -11 -10 -20 -23 -20 -30 0 -7 -7 -13 -15 -13 -8
0 -15 -9 -15 -20 0 -11 -7 -20 -15 -20 -8 0 -15 -5 -15 -11 0 -12 -68 -100
-87 -112 -7 -4 -13 -15 -13 -22 0 -8 -7 -15 -15 -15 -8 0 -15 -7 -15 -15 0 -8
-4 -15 -10 -15 -5 0 -16 -12 -24 -27 -8 -16 -33 -47 -55 -71 -23 -24 -41 -45
-41 -48 0 -2 -19 -24 -43 -48 -24 -24 -54 -58 -67 -77 -13 -19 -43 -53 -67
-75 -24 -23 -43 -46 -43 -51 0 -5 -13 -20 -30 -33 -16 -14 -29 -29 -30 -34 0
-13 -76 -86 -89 -86 -6 0 -11 -7 -11 -15 0 -8 -7 -15 -15 -15 -8 0 -15 -5 -15
-11 0 -12 -43 -59 -132 -148 -132 -130 -167 -161 -177 -161 -6 0 -11 -7 -11
-15 0 -8 -4 -15 -10 -15 -5 0 -30 -21 -56 -47 -25 -27 -49 -48 -53 -48 -4 0
-27 -19 -52 -42 -107 -103 -130 -123 -140 -123 -6 0 -25 -14 -42 -30 -18 -17
-39 -37 -48 -45 -9 -8 -21 -15 -28 -15 -6 0 -14 -7 -17 -15 -4 -8 -11 -15 -18
-15 -6 0 -22 -12 -35 -26 -13 -14 -37 -32 -53 -40 -15 -8 -28 -19 -28 -24 0
-6 -6 -10 -12 -10 -7 0 -28 -14 -47 -30 -18 -17 -40 -30 -48 -30 -7 0 -16 -7
-19 -15 -4 -8 -13 -15 -20 -15 -8 0 -17 -7 -20 -15 -3 -8 -16 -17 -27 -21 -12
-4 -38 -20 -58 -35 -20 -16 -44 -29 -52 -29 -8 0 -17 -7 -21 -15 -3 -8 -14
-15 -25 -15 -11 0 -24 -6 -28 -12 -4 -7 -17 -18 -28 -25 -39 -24 -177 -93
-186 -93 -5 0 -18 -9 -29 -20 -11 -11 -27 -20 -35 -20 -8 0 -15 -4 -15 -9 0
-5 -16 -12 -35 -15 -19 -4 -35 -11 -35 -16 0 -4 -13 -11 -30 -15 -16 -4 -30
-11 -30 -15 0 -5 -16 -12 -35 -16 -19 -3 -35 -10 -35 -15 0 -5 -20 -14 -45
-20 -25 -6 -48 -15 -51 -20 -3 -5 -16 -9 -29 -9 -13 0 -28 -8 -34 -17 -8 -16
-25 -18 -141 -16 -73 1 -137 6 -143 12 -7 5 -56 14 -110 20 -53 6 -116 15
-140 21 -70 16 -218 39 -289 46 -38 4 -68 10 -68 15 0 4 -35 11 -77 14 -43 4
-80 11 -83 16 -3 5 -39 11 -80 15 -41 4 -80 10 -85 15 -6 4 -42 11 -80 14 -39
4 -81 11 -95 16 -53 19 -264 49 -274 39 -7 -7 -1 -10 17 -10 17 0 27 -5 27
-15 0 -8 6 -15 13 -16 40 -2 71 -9 76 -18 3 -5 18 -12 33 -16 15 -4 29 -13 32
-21 3 -8 19 -14 36 -14 16 0 30 -4 30 -9 0 -5 20 -15 45 -22 25 -7 45 -17 45
-21 0 -4 7 -8 15 -8 8 0 32 -9 52 -20 21 -11 43 -20 50 -20 7 0 13 -4 13 -9 0
-5 19 -12 43 -16 23 -4 45 -12 49 -18 3 -6 19 -12 35 -15 15 -2 30 -7 31 -13
2 -5 9 -9 15 -9 7 0 35 -12 62 -25 28 -14 58 -25 67 -25 9 0 19 -4 22 -9 3 -4
24 -11 46 -15 22 -3 40 -10 40 -14 0 -19 -28 -32 -70 -32 -25 0 -51 -5 -57
-11 -8 -8 -17 -7 -33 3 -18 10 -24 10 -27 1 -6 -15 -33 -17 -33 -3 0 6 -7 10
-15 10 -8 0 -15 -4 -15 -10 0 -6 -28 -10 -65 -10 -37 0 -65 4 -65 10 0 6 -7
10 -15 10 -8 0 -15 -4 -15 -10 0 -14 -27 -12 -33 3 -3 9 -9 9 -26 -1 -17 -10
-25 -10 -42 0 -17 10 -23 10 -26 1 -5 -14 -33 -18 -33 -5 0 5 -93 14 -207 21
-259 14 -266 15 -278 22 -5 4 -54 7 -107 8 -53 1 -112 6 -130 12 -32 9 -249
32 -298 31 -14 0 -29 3 -35 8 -5 4 -57 10 -115 14 -57 4 -107 12 -111 17 -3 5
-52 12 -110 16 -57 3 -107 10 -110 15 -3 6 -53 12 -110 15 -59 4 -109 11 -115
18 -7 7 -52 15 -101 18 -48 4 -89 11 -91 17 -2 5 -23 10 -47 10 -24 0 -76 6
-117 14 -40 8 -104 17 -143 21 -38 4 -72 11 -75 16 -3 4 -43 11 -88 15 -45 4
-79 10 -77 14 5 8 -69 20 -126 20 -22 0 -39 4 -39 9 0 5 -30 12 -67 16 -38 3
-93 12 -123 20 -51 13 -138 30 -217 42 -21 3 -33 1 -33 -6 0 -6 9 -11 19 -11
11 0 26 -7 35 -15 8 -8 21 -15 30 -15 8 0 21 -6 28 -14 8 -7 28 -17 45 -20 17
-4 34 -14 37 -22 3 -8 14 -14 25 -14 11 0 32 -6 48 -14 15 -8 44 -21 63 -29
19 -8 56 -24 81 -36 25 -12 51 -21 57 -21 6 0 12 -5 14 -10 2 -6 21 -13 43
-17 22 -3 43 -11 47 -16 3 -6 19 -12 35 -15 15 -2 30 -7 33 -12 3 -5 19 -12
35 -16 17 -3 41 -12 55 -19 50 -25 96 -42 128 -49 17 -4 32 -11 32 -16 0 -5
14 -12 32 -15 17 -4 38 -14 46 -21 7 -8 23 -14 36 -14 12 0 31 -7 42 -15 10
-8 33 -15 50 -15 17 0 37 -7 44 -15 7 -8 27 -15 44 -15 17 0 41 -6 52 -14 11
-8 37 -17 57 -21 21 -4 40 -11 42 -16 3 -4 25 -11 50 -14 24 -4 46 -13 48 -20
3 -6 24 -15 48 -18 23 -3 45 -10 48 -15 3 -5 26 -12 50 -15 24 -3 47 -10 50
-15 3 -5 26 -12 51 -15 24 -3 46 -11 48 -16 2 -6 18 -11 36 -11 18 0 41 -7 52
-15 10 -8 36 -15 56 -15 20 0 49 -6 65 -14 29 -15 120 -39 213 -58 30 -7 57
-15 60 -19 3 -3 31 -9 63 -13 31 -4 57 -11 57 -16 0 -4 29 -11 65 -15 36 -3
65 -11 65 -16 0 -5 20 -9 45 -9 24 0 64 -6 87 -14 24 -8 66 -17 93 -21 28 -4
70 -13 95 -20 25 -8 73 -17 108 -20 34 -4 62 -11 62 -16 0 -5 3 -8 8 -7 19 5
232 -15 232 -22 0 -4 51 -10 113 -14 61 -4 114 -11 115 -16 2 -6 47 -10 100
-11 54 0 131 -4 172 -10 241 -29 845 -33 960 -5 14 3 72 9 130 12 58 4 110 10
116 15 5 5 55 11 109 15 61 5 105 12 113 21 8 8 37 13 73 13 32 0 59 4 59 9 0
5 25 13 56 17 31 3 69 13 83 20 33 18 84 18 141 0 25 -7 73 -17 108 -21 34 -4
62 -11 62 -16 0 -5 3 -8 8 -7 19 4 242 -15 242 -22 0 -4 48 -10 108 -14 59 -4
109 -11 110 -16 2 -6 47 -10 100 -11 54 0 131 -5 172 -10 134 -17 170 -19 505
-20 329 -1 401 2 505 20 30 5 84 10 120 10 37 1 70 5 76 11 5 5 54 12 109 16
55 4 103 12 107 17 4 6 36 13 72 15 36 2 66 8 66 12 0 4 19 11 43 14 23 4 60
13 82 21 45 16 121 20 129 6 3 -4 48 -14 101 -21 52 -7 95 -16 95 -21 0 -5 3
-8 8 -7 19 4 242 -15 242 -22 0 -4 48 -10 108 -14 59 -4 109 -11 110 -16 2 -6
47 -10 100 -11 54 0 133 -5 177 -10 146 -18 178 -19 505 -20 313 0 396 2 450
15 14 4 79 9 145 13 66 3 123 10 126 15 3 5 49 12 102 15 53 3 94 9 92 14 -6
8 32 18 88 21 21 1 40 5 43 9 2 4 28 10 57 14 28 3 67 13 85 21 18 9 50 18 70
21 20 3 49 12 64 19 15 8 38 14 52 14 13 0 26 5 28 11 2 5 24 13 48 16 25 4
51 12 58 20 7 7 27 13 43 13 17 0 37 7 45 15 9 8 26 15 40 15 13 0 24 4 24 10
0 5 20 15 45 21 25 6 45 15 45 19 0 5 13 11 29 15 16 3 35 13 42 21 6 8 22 14
35 14 13 0 24 4 24 9 0 5 14 13 32 16 17 4 38 14 46 21 7 8 22 14 33 14 10 0
19 4 19 9 0 5 14 14 30 20 17 5 30 14 30 19 0 6 11 13 25 16 32 8 95 46 95 57
0 5 8 9 19 9 10 0 24 7 31 15 7 8 20 15 29 15 9 0 28 13 41 30 14 16 33 29 42
30 9 0 23 6 30 13 26 23 77 57 88 57 6 0 13 7 16 15 4 8 10 15 15 15 6 0 19 9
31 20 12 11 28 20 35 20 7 0 13 5 13 10 0 6 5 10 11 10 7 0 27 15 44 33 49 48
74 67 90 67 8 0 15 7 15 15 0 8 5 15 11 15 7 0 33 21 59 48 63 62 130 118 141
114 5 -1 9 3 9 9 0 15 74 89 89 89 6 0 11 6 11 13 0 7 13 24 30 37 16 14 29
30 30 37 0 6 29 41 65 78 36 36 65 70 65 74 0 4 13 18 30 31 16 14 29 31 30
38 0 6 7 12 15 12 8 0 15 4 15 9 0 10 42 59 118 139 23 24 42 51 42 58 0 8 4
14 10 14 12 0 60 48 60 60 0 6 7 10 15 10 8 0 15 7 15 15 0 8 7 15 15 15 8 0
15 6 15 14 0 8 16 31 35 50 19 20 35 41 35 46 0 6 6 10 14 10 8 0 18 9 21 20
3 11 11 20 16 20 5 0 9 7 9 15 0 8 7 15 15 15 8 0 15 4 15 10 0 5 15 25 33 44
77 81 107 115 107 120 0 10 39 46 50 46 6 0 10 6 10 14 0 8 7 17 16 20 8 3 12
11 9 17 -4 6 2 13 14 16 12 3 21 12 21 19 0 8 7 14 15 14 8 0 15 5 15 11 0 7
16 27 35 46 19 19 35 38 35 43 0 6 26 36 58 67 32 32 61 66 65 76 3 9 14 17
22 17 9 0 13 5 10 11 -4 6 2 13 14 16 12 3 21 11 21 17 0 12 47 67 141 166 26
27 49 56 52 64 4 9 11 16 17 16 5 0 10 7 10 15 0 8 7 15 15 15 8 0 15 7 15 15
0 8 7 15 15 15 8 0 15 5 15 10 0 11 35 53 113 133 26 27 47 55 47 63 0 8 7 14
15 14 8 0 15 4 15 8 0 8 50 67 110 128 16 17 30 36 30 43 0 6 7 11 15 11 8 0
15 7 15 15 0 8 5 15 10 15 9 0 58 45 185 170 17 17 36 30 43 30 6 0 12 7 12
15 0 8 9 15 20 15 11 0 20 7 20 15 0 8 6 15 13 15 7 0 20 8 29 18 38 38 55 52
67 52 7 0 25 12 40 28 34 34 80 68 86 65 3 -2 14 6 25 17 11 11 26 20 34 20 8
0 16 7 20 15 3 8 10 15 16 15 6 0 18 7 26 15 9 8 24 15 35 15 10 0 19 7 19 15
0 8 4 15 10 15 5 0 26 12 47 26 21 14 48 30 61 35 12 5 22 13 22 19 0 6 4 8
10 5 5 -3 10 -1 10 4 0 6 9 11 20 11 11 0 20 4 20 10 0 5 12 13 28 16 15 4 29
10 32 14 8 11 163 90 178 90 6 0 12 5 12 10 0 6 6 10 13 10 7 0 29 9 50 20 20
11 44 20 53 20 8 0 22 7 30 15 9 8 28 15 44 15 16 0 30 7 34 15 3 9 18 15 36
15 16 0 30 4 30 10 0 5 18 14 39 20 22 6 52 17 68 25 15 8 39 15 53 15 14 0
34 7 44 15 11 8 33 15 49 15 15 0 35 7 43 15 10 9 34 15 64 15 33 0 50 5 54
15 4 10 19 15 49 15 24 0 48 5 54 11 7 7 24 13 40 15 100 10 139 17 144 26 3
5 39 13 80 18 41 5 99 14 129 20 30 5 184 13 343 16 270 7 287 8 287 25 0 18
-196 19 -7210 19 -3965 0 -7210 1 -7210 3 0 7 369 1217 709 2327 50 162 91
298 91 301 0 5 -138 24 -260 36 l-45 5 -144 -479z m6959 -2553 c0 -5 9 -10 20
-10 11 0 20 5 20 10 0 16 19 11 43 -11 21 -19 21 -21 5 -33 -10 -7 -18 -21
-18 -30 0 -9 -6 -16 -14 -16 -8 0 -17 -11 -20 -25 -4 -14 -11 -25 -16 -25 -6
0 -10 -9 -10 -20 0 -11 -6 -20 -14 -20 -8 0 -17 -13 -21 -30 -4 -16 -11 -30
-16 -30 -5 0 -9 -7 -9 -15 0 -9 -6 -18 -14 -21 -8 -3 -19 -19 -25 -35 -5 -16
-15 -29 -20 -29 -6 0 -11 -7 -11 -15 0 -9 -6 -18 -14 -21 -8 -3 -17 -16 -20
-30 -4 -13 -11 -24 -16 -24 -6 0 -10 -7 -10 -15 0 -9 -7 -18 -15 -21 -8 -4
-15 -12 -15 -18 0 -7 -8 -21 -17 -32 -10 -10 -24 -31 -32 -46 -8 -15 -24 -38
-35 -50 -12 -12 -21 -26 -21 -31 0 -4 -5 -11 -12 -15 -6 -4 -15 -20 -18 -35
-4 -15 -13 -27 -21 -27 -8 0 -14 -6 -14 -14 0 -8 -7 -16 -15 -20 -8 -3 -15
-12 -15 -21 0 -8 -4 -15 -9 -15 -5 0 -14 -13 -21 -30 -7 -16 -19 -30 -26 -30
-8 0 -14 -7 -14 -15 0 -8 -4 -15 -9 -15 -5 0 -12 -13 -16 -30 -4 -16 -13 -30
-21 -30 -8 0 -14 -9 -14 -20 0 -11 -7 -20 -15 -20 -8 0 -15 -7 -15 -15 0 -8
-7 -15 -15 -15 -8 0 -15 -9 -15 -20 0 -10 -16 -34 -35 -53 -19 -19 -35 -39
-35 -46 0 -6 -7 -11 -15 -11 -9 0 -15 -9 -15 -24 0 -13 -7 -26 -15 -30 -8 -3
-15 -12 -15 -21 0 -8 -7 -15 -15 -15 -8 0 -15 -9 -15 -20 0 -11 -7 -20 -15
-20 -8 0 -15 -5 -15 -12 0 -11 -14 -29 -52 -66 -10 -9 -18 -22 -18 -29 0 -7
-7 -13 -15 -13 -8 0 -15 -6 -15 -14 0 -8 -7 -16 -15 -20 -8 -3 -15 -12 -15
-21 0 -8 -7 -15 -15 -15 -8 0 -15 -7 -15 -15 0 -9 -7 -18 -15 -21 -8 -3 -17
-15 -21 -27 -4 -12 -20 -32 -35 -46 -16 -14 -29 -31 -29 -38 0 -7 -7 -13 -15
-13 -8 0 -15 -7 -15 -15 0 -8 -7 -15 -15 -15 -8 0 -15 -7 -15 -15 0 -9 -7 -18
-15 -21 -8 -4 -15 -12 -15 -19 0 -8 -36 -50 -80 -94 -44 -45 -80 -84 -80 -87
0 -12 -45 -54 -58 -54 -7 0 -11 -4 -8 -8 5 -9 -7 -22 -81 -92 -24 -22 -43 -44
-43 -50 0 -5 -7 -10 -15 -10 -8 0 -15 -5 -15 -10 0 -6 -19 -28 -42 -50 -24
-22 -83 -80 -133 -129 -49 -48 -98 -91 -107 -94 -10 -4 -18 -13 -18 -22 0 -8
-7 -15 -15 -15 -8 0 -15 -7 -15 -15 0 -8 -5 -15 -10 -15 -6 0 -24 -14 -40 -30
-16 -16 -34 -30 -40 -30 -5 0 -10 -7 -10 -15 0 -8 -7 -15 -15 -15 -8 0 -15 -7
-15 -15 0 -8 -6 -15 -13 -15 -7 0 -23 -9 -35 -20 -12 -11 -23 -20 -26 -20 -3
0 -26 -20 -50 -45 -25 -24 -56 -47 -70 -51 -14 -3 -26 -12 -26 -20 0 -8 -7
-14 -15 -14 -8 0 -15 -7 -15 -15 0 -8 -6 -15 -14 -15 -8 0 -16 -7 -20 -15 -3
-8 -12 -15 -21 -15 -8 0 -15 -5 -15 -10 0 -6 -12 -16 -27 -23 -16 -6 -41 -24
-56 -39 -16 -16 -37 -28 -48 -28 -10 0 -19 -7 -19 -15 0 -8 -7 -15 -15 -15 -9
0 -18 -6 -21 -14 -3 -8 -16 -17 -29 -20 -13 -3 -36 -17 -51 -31 -15 -14 -38
-28 -50 -31 -12 -3 -25 -12 -28 -20 -3 -8 -12 -14 -20 -14 -7 0 -16 -7 -20
-15 -3 -8 -14 -15 -24 -15 -11 0 -25 -7 -32 -15 -7 -8 -18 -15 -25 -15 -7 0
-15 -7 -19 -15 -3 -8 -14 -15 -24 -15 -10 0 -29 -9 -42 -20 -13 -11 -29 -20
-37 -20 -8 0 -21 -7 -29 -15 -9 -8 -24 -15 -35 -15 -10 0 -19 -7 -19 -15 0
-10 -10 -15 -29 -15 -16 0 -31 -6 -35 -15 -3 -9 -18 -15 -36 -15 -20 0 -30 -5
-30 -15 0 -10 -10 -15 -30 -15 -20 0 -30 -5 -30 -15 0 -9 -9 -15 -23 -15 -13
0 -34 -9 -47 -20 -13 -11 -37 -20 -57 -20 -23 0 -33 -5 -33 -15 0 -10 -11 -15
-35 -15 -24 0 -35 -5 -35 -15 0 -14 -53 -21 -120 -17 -8 0 -54 2 -102 3 -65 2
-88 6 -88 16 0 7 4 13 9 13 5 0 11 9 14 20 3 11 13 20 22 20 9 0 13 5 10 11
-4 6 2 13 14 16 12 3 21 12 21 19 0 8 6 14 13 14 7 0 24 13 37 30 14 16 30 29
37 30 7 0 27 16 46 35 19 19 39 35 46 35 6 0 11 7 11 15 0 8 7 15 15 15 8 0
15 7 15 15 0 8 7 15 15 15 8 0 15 7 15 15 0 8 5 15 11 15 15 0 59 42 59 58 0
6 7 12 15 12 8 0 15 6 15 13 0 7 13 24 30 37 16 14 29 30 30 37 0 6 29 41 65
78 36 36 65 69 65 72 0 3 15 21 33 38 17 18 48 51 67 74 19 23 56 64 83 91 26
28 47 52 47 55 0 3 20 26 45 51 25 24 45 49 45 54 0 6 7 10 15 10 8 0 15 7 15
15 0 8 7 15 15 15 8 0 15 7 15 15 0 9 16 31 35 49 19 19 35 39 35 44 0 5 9 12
20 15 11 3 20 12 20 21 0 9 5 16 10 16 6 0 10 7 10 15 0 8 7 15 15 15 8 0 15
6 15 14 0 7 9 16 20 19 11 3 19 9 18 14 -2 5 14 26 35 47 20 22 37 45 37 53 0
7 7 13 15 13 8 0 15 7 15 15 0 8 7 15 15 15 8 0 15 7 15 15 0 8 7 15 15 15 8
0 15 6 15 14 0 8 7 16 15 20 8 3 15 12 15 21 0 8 7 15 15 15 8 0 15 5 15 11 0
7 16 27 35 46 19 19 35 40 35 48 0 8 7 15 15 15 8 0 15 7 15 15 0 8 7 15 15
15 8 0 15 5 15 11 0 6 23 32 50 58 28 26 50 52 50 59 0 7 7 12 15 12 8 0 15 7
15 15 0 8 4 15 9 15 5 0 13 9 16 20 3 11 13 20 21 20 8 0 14 6 14 14 0 8 29
44 65 80 36 36 65 70 65 76 0 5 7 10 15 10 8 0 15 7 15 15 0 9 7 18 15 21 8 4
15 12 15 20 0 8 7 14 15 14 8 0 15 7 15 15 0 8 7 15 15 15 8 0 15 6 15 14 0 8
32 46 70 85 39 40 70 75 70 79 0 4 14 18 30 32 17 14 30 28 30 32 0 12 38 48
50 48 6 0 10 6 10 14 0 8 16 31 35 50 19 20 35 41 35 46 0 6 5 10 11 10 7 0
34 23 61 50 27 28 56 50 64 50 7 0 14 5 14 10 0 15 38 50 55 50 8 0 15 7 15
15 0 8 4 15 9 15 5 0 32 23 60 50 28 28 60 50 71 50 11 0 20 7 20 15 0 8 6 15
13 15 7 0 24 13 37 30 14 16 30 29 36 30 6 0 19 9 29 20 10 11 24 20 32 20 7
0 13 5 13 11 0 5 14 15 30 20 17 6 30 15 30 20 0 5 9 9 20 9 11 0 20 6 20 14
0 8 11 17 25 20 13 3 36 17 51 31 14 13 39 30 55 37 16 7 29 16 29 20 0 3 14
9 30 13 17 4 30 11 30 16 0 5 7 9 15 9 9 0 18 6 21 14 3 8 19 18 35 21 16 4
29 11 29 16 0 5 12 12 27 15 15 4 34 13 41 21 7 7 22 13 33 13 11 0 22 7 25
15 4 8 14 15 24 15 10 0 25 7 33 15 8 7 28 17 43 21 16 4 32 12 36 17 3 6 34
13 67 15 34 2 61 8 61 13 0 5 5 9 10 9 6 0 10 -4 10 -10z m2750 0 c0 -5 9 -10
20 -10 11 0 20 5 20 10 0 6 6 10 13 10 15 -1 52 -50 37 -50 -6 0 -15 -11 -20
-25 -5 -14 -14 -25 -20 -25 -5 0 -10 -11 -10 -24 0 -13 -7 -26 -15 -30 -8 -3
-15 -12 -15 -20 0 -7 -6 -16 -12 -19 -7 -3 -22 -22 -33 -43 -11 -22 -29 -49
-41 -62 -12 -13 -30 -38 -39 -57 -9 -19 -20 -35 -24 -35 -5 0 -12 -11 -15 -25
-4 -14 -11 -25 -16 -25 -6 0 -10 -7 -10 -15 0 -9 -6 -18 -14 -21 -8 -3 -18
-19 -21 -35 -4 -16 -13 -29 -21 -29 -8 0 -14 -7 -14 -15 0 -8 -5 -15 -11 -15
-5 0 -15 -13 -20 -30 -6 -16 -15 -30 -20 -30 -5 0 -9 -7 -9 -15 0 -9 -7 -18
-15 -21 -8 -4 -15 -12 -15 -20 0 -8 -6 -14 -14 -14 -8 0 -17 -11 -20 -25 -3
-13 -16 -35 -29 -49 -12 -13 -29 -37 -37 -53 -8 -15 -25 -38 -37 -50 -13 -12
-23 -26 -23 -30 0 -5 -9 -16 -20 -26 -11 -9 -20 -23 -20 -31 0 -8 -7 -16 -15
-20 -8 -3 -15 -12 -15 -21 0 -8 -7 -15 -15 -15 -8 0 -15 -5 -15 -10 0 -14 -41
-72 -57 -83 -7 -4 -13 -15 -13 -22 0 -8 -5 -15 -10 -15 -6 0 -14 -8 -17 -17
-7 -19 -17 -32 -45 -64 -10 -10 -18 -21 -18 -24 0 -3 -13 -19 -30 -35 -16 -16
-30 -33 -30 -37 0 -5 -9 -16 -20 -26 -11 -9 -20 -24 -20 -32 0 -8 -7 -15 -15
-15 -8 0 -15 -6 -15 -14 0 -8 -7 -16 -15 -20 -8 -3 -15 -12 -15 -21 0 -8 -7
-15 -15 -15 -8 0 -15 -7 -15 -15 0 -9 -7 -18 -15 -21 -8 -3 -17 -15 -21 -27
-4 -12 -20 -32 -35 -46 -16 -14 -29 -31 -29 -38 0 -7 -7 -13 -15 -13 -8 0 -15
-7 -15 -15 0 -8 -7 -15 -15 -15 -8 0 -15 -7 -15 -15 0 -9 -7 -18 -15 -21 -8
-4 -15 -12 -15 -20 0 -8 -7 -14 -15 -14 -8 0 -15 -6 -15 -14 0 -8 -16 -31 -35
-50 -19 -20 -35 -41 -35 -46 0 -6 -7 -10 -15 -10 -8 0 -15 -7 -15 -15 0 -8 -7
-15 -15 -15 -8 0 -15 -7 -15 -15 0 -9 -7 -18 -15 -21 -8 -4 -15 -12 -15 -20 0
-8 -7 -14 -15 -14 -8 0 -15 -7 -15 -15 0 -8 -9 -15 -20 -15 -11 0 -20 -7 -20
-15 0 -9 -7 -18 -15 -21 -8 -4 -13 -10 -10 -14 3 -5 -4 -11 -15 -15 -11 -3
-20 -13 -20 -21 0 -8 -7 -14 -15 -14 -8 0 -15 -7 -15 -15 0 -8 -7 -15 -15 -15
-8 0 -15 -5 -15 -10 0 -10 -57 -67 -104 -105 -14 -11 -25 -23 -26 -28 0 -4
-18 -24 -40 -45 -58 -54 -68 -62 -80 -62 -5 0 -10 -5 -10 -11 0 -12 -41 -59
-52 -59 -4 0 -35 -27 -68 -60 -33 -33 -65 -60 -70 -60 -6 0 -10 -7 -10 -15 0
-8 -6 -15 -13 -15 -8 0 -22 -9 -32 -20 -10 -11 -24 -20 -32 -20 -7 0 -13 -7
-13 -15 0 -8 -6 -15 -13 -15 -7 0 -24 -13 -38 -29 -15 -17 -38 -33 -53 -37
-14 -3 -23 -10 -20 -16 3 -5 -3 -12 -15 -15 -12 -3 -21 -12 -21 -19 0 -8 -7
-14 -15 -14 -9 0 -18 -7 -21 -15 -4 -8 -12 -15 -20 -15 -8 0 -22 -9 -31 -20
-10 -11 -23 -20 -30 -20 -7 0 -13 -7 -13 -15 0 -8 -9 -15 -20 -15 -11 0 -20
-4 -20 -9 0 -5 -10 -13 -21 -16 -12 -4 -34 -20 -49 -35 -15 -15 -37 -31 -50
-35 -12 -4 -31 -16 -42 -27 -11 -11 -35 -26 -54 -34 -19 -8 -34 -19 -34 -24 0
-6 -5 -10 -11 -10 -6 0 -17 -7 -25 -15 -9 -8 -24 -15 -35 -15 -10 0 -19 -5
-19 -11 0 -5 -13 -15 -30 -20 -16 -6 -30 -15 -30 -20 0 -5 -6 -9 -14 -9 -8 0
-21 -6 -28 -13 -18 -18 -96 -57 -113 -57 -8 0 -15 -7 -15 -15 0 -10 -10 -15
-30 -15 -20 0 -30 -5 -30 -15 0 -10 -10 -15 -30 -15 -18 0 -33 -6 -36 -15 -4
-9 -19 -15 -35 -15 -18 0 -29 -5 -29 -14 0 -9 -17 -16 -45 -21 -25 -3 -43 -10
-40 -15 6 -10 -19 -20 -51 -20 -15 0 -24 -6 -24 -15 0 -10 -11 -15 -35 -15
-24 0 -35 -5 -35 -15 0 -11 -12 -15 -45 -15 -33 0 -45 -4 -45 -15 0 -11 -12
-15 -45 -15 -27 0 -47 -5 -52 -14 -4 -7 -32 -15 -62 -18 -29 -3 -56 -10 -60
-17 -4 -6 -35 -14 -69 -17 -34 -4 -62 -11 -62 -15 0 -5 -16 -9 -35 -9 -19 0
-35 5 -35 10 0 6 9 10 20 10 13 0 20 7 20 20 0 15 7 20 25 20 16 0 25 6 25 15
0 8 9 15 20 15 11 0 20 7 20 15 0 8 7 15 15 15 8 0 15 7 15 15 0 8 6 15 13 15
7 0 20 9 30 20 9 11 26 20 37 20 11 0 20 7 20 15 0 8 7 15 15 15 8 0 15 7 15
15 0 8 6 15 14 15 8 0 16 7 20 15 3 8 12 15 21 15 8 0 15 7 15 15 0 8 7 15 15
15 8 0 29 16 48 35 19 19 39 35 46 35 6 0 11 7 11 15 0 8 7 15 15 15 8 0 15 7
15 15 0 8 7 15 15 15 8 0 15 7 15 15 0 8 7 15 15 15 8 0 15 7 15 16 0 9 9 18
20 21 11 3 20 9 20 14 0 5 23 32 50 60 28 28 50 55 50 60 0 4 27 36 60 69 33
33 60 63 60 65 0 3 29 35 65 73 36 37 65 70 65 73 0 4 23 30 50 58 28 28 50
53 50 56 0 3 14 19 30 35 17 16 30 34 30 40 0 5 7 10 15 10 8 0 15 7 15 15 0
8 7 15 15 15 8 0 15 6 15 14 0 8 16 31 35 50 19 20 35 41 35 46 0 6 5 10 11
10 13 0 59 41 59 52 0 14 34 48 47 48 7 0 13 7 13 16 0 8 12 28 28 44 58 61
72 78 72 89 0 6 7 11 15 11 8 0 15 7 15 15 0 8 7 15 15 15 8 0 15 7 15 15 0 8
7 15 15 15 8 0 15 7 15 15 0 9 7 18 15 21 8 4 15 12 15 20 0 8 7 14 15 14 8 0
15 5 15 11 0 7 16 27 35 46 19 19 35 40 35 48 0 8 7 15 15 15 8 0 15 7 15 15
0 8 7 15 15 15 8 0 15 6 15 13 0 7 14 23 30 37 17 14 30 29 30 33 0 14 44 57
58 57 6 0 12 6 12 13 0 7 13 24 30 37 16 14 29 30 30 37 0 7 23 34 50 61 28
27 50 54 50 61 0 6 7 11 15 11 8 0 15 5 15 12 0 6 20 31 45 55 25 23 45 47 45
53 0 5 7 10 15 10 8 0 15 6 15 13 0 7 25 38 55 69 30 31 55 60 55 64 0 4 20
26 45 50 25 23 45 47 45 53 0 6 7 11 15 11 8 0 15 7 15 15 0 8 7 15 15 15 8 0
15 6 15 14 0 8 16 31 35 50 19 20 35 41 35 46 0 6 7 10 15 10 8 0 15 7 15 15
0 8 5 15 11 15 15 0 89 74 89 89 0 6 9 11 20 11 11 0 23 7 26 15 4 8 15 15 25
15 10 0 19 5 19 11 0 15 42 59 58 59 6 0 12 7 12 15 0 8 7 15 15 15 8 0 15 5
15 11 0 5 14 15 30 20 17 6 30 15 30 20 0 5 7 9 15 9 9 0 18 7 21 15 4 8 12
15 20 15 8 0 14 6 14 14 0 12 34 30 53 27 4 -1 7 6 7 14 0 8 7 15 15 15 8 0
15 5 15 11 0 5 13 15 29 20 16 6 32 17 35 25 3 9 10 12 16 9 6 -3 13 1 16 9 3
9 12 16 20 16 7 0 17 7 21 15 5 8 19 16 31 18 12 2 28 10 35 19 13 18 85 58
103 58 7 0 14 7 18 15 3 8 12 15 21 15 8 0 15 4 15 9 0 5 12 12 26 15 15 4 33
14 41 21 8 8 23 15 34 15 10 0 19 4 19 9 0 9 66 44 108 56 12 3 22 10 22 15 0
4 15 11 34 14 19 4 36 12 38 18 2 6 32 13 66 16 34 2 62 8 62 13 0 5 5 9 10 9
6 0 10 -4 10 -10z"/>
<path d="M4888 12347 c-149 -378 -152 -387 -143 -435 17 -95 92 -165 220 -205
61 -19 92 -22 245 -22 148 1 187 4 255 22 148 41 275 101 384 182 30 23 56 40
57 38 1 -1 -11 -47 -27 -101 -16 -54 -29 -105 -29 -112 0 -11 28 -14 139 -14
l138 0 33 103 c25 80 238 623 324 830 l16 37 -148 0 -148 0 -89 -222 c-48
-123 -97 -241 -108 -263 -102 -208 -489 -398 -755 -371 -87 9 -166 45 -186 85
-32 61 -22 99 110 431 69 173 128 321 131 328 4 9 -28 12 -143 12 l-149 0
-127 -323z"/>
<path d="M6751 12618 c-10 -24 -21 -53 -25 -65 l-7 -23 467 0 c291 0 464 -4
459 -9 -10 -10 -354 -209 -980 -568 -311 -179 -385 -227 -385 -254 0 -5 285
-9 748 -9 l747 0 23 55 c12 31 22 60 22 65 0 6 -184 10 -507 10 -315 0 -503 4
-497 9 5 6 131 80 279 166 288 168 944 547 1010 585 22 13 46 30 53 39 34 42
47 41 -688 41 l-701 0 -18 -42z"/>
<path d="M11719 11550 c-289 -22 -498 -95 -606 -213 -134 -147 -82 -308 139
-434 40 -23 153 -74 251 -113 329 -130 396 -180 384 -287 -9 -83 -80 -140
-222 -179 -95 -26 -384 -31 -537 -9 -102 14 -261 50 -353 80 -18 5 -23 -3 -47
-75 -19 -58 -23 -82 -15 -85 37 -14 198 -46 302 -61 150 -22 530 -25 650 -6
378 62 576 217 533 417 -9 42 -21 60 -72 110 -72 70 -161 119 -361 200 -191
78 -272 117 -326 159 -94 71 -105 171 -27 243 41 39 149 82 248 99 188 32 561
1 724 -62 10 -4 21 16 41 76 15 45 25 83 24 85 -7 6 -193 35 -289 44 -149 15
-326 20 -441 11z"/>
<path d="M8796 11138 c-88 -215 -166 -421 -173 -457 -40 -183 37 -320 232
-417 172 -85 398 -122 680 -111 278 11 441 45 610 127 153 74 261 180 339 336
19 38 111 259 205 492 l170 422 -153 0 -154 0 -167 -417 c-92 -230 -183 -449
-203 -488 -54 -104 -149 -196 -254 -244 -120 -56 -205 -73 -398 -79 -186 -5
-277 5 -392 45 -148 51 -223 134 -221 247 2 87 23 147 192 560 83 203 151 370
151 372 0 2 -69 4 -153 4 l-152 0 -159 -392z"/>
<path d="M4591 11488 c-5 -12 -126 -317 -270 -676 -144 -358 -261 -654 -261
-657 0 -10 946 -5 1080 5 367 28 692 112 892 231 198 117 331 279 368 450 7
32 11 93 8 140 -6 112 -38 178 -128 262 -133 126 -303 195 -600 243 -85 14
-196 18 -592 21 l-488 5 -9 -24z m926 -139 c206 -23 389 -88 478 -170 157
-145 136 -388 -49 -574 -107 -108 -252 -184 -456 -239 -196 -53 -258 -58 -679
-63 -240 -3 -392 -1 -390 4 2 5 98 244 214 531 l209 522 288 0 c159 0 332 -5
385 -11z"/>
<path d="M6780 11490 c-6 -12 -69 -168 -140 -348 -70 -180 -187 -475 -259
-656 -72 -181 -131 -330 -131 -332 0 -2 69 -4 153 -4 l152 0 268 673 c147 369
267 675 267 680 0 4 -67 7 -150 7 -140 0 -150 -1 -160 -20z"/>
<path d="M7387 11502 c-3 -4 -118 -293 -256 -642 -138 -349 -258 -650 -266
-668 -8 -18 -15 -35 -15 -38 0 -2 69 -3 153 -2 l152 3 119 298 118 297 454 0
455 0 29 66 c17 36 30 70 30 75 0 5 -189 9 -454 9 l-455 0 93 228 92 227 491
3 491 2 26 65 c14 36 26 70 26 75 0 12 -1276 14 -1283 2z"/>
<path d="M12844 10839 c-412 -369 -750 -675 -752 -680 -2 -5 73 -9 167 -9
l171 0 205 190 205 190 541 -2 542 -3 53 -178 c29 -97 56 -182 59 -187 10 -16
318 -13 313 3 -8 21 -426 1301 -433 1325 -6 22 -9 22 -164 22 l-157 0 -750
-671z m950 112 c42 -146 74 -266 72 -268 -6 -7 -856 -8 -856 -1 0 3 138 134
308 289 169 156 323 302 342 324 l35 41 12 -60 c6 -34 45 -180 87 -325z"/>
</g>
</svg>
